<svg fill="#FFFFFF" width="24px" height="24px" viewBox="0 -0.06 0.6 0.6" xmlns="http://www.w3.org/2000/svg">
  <path d="M0.382 0.002c0.016 0.006 0.024 0.024 0.018 0.041L0.256 0.459c-0.006 0.016 -0.023 0.025 -0.038 0.019 -0.016 -0.006 -0.024 -0.024 -0.018 -0.041L0.344 0.021c0.006 -0.016 0.023 -0.025 0.038 -0.019ZM0.072 0.248 0.178 0.36c0.012 0.012 0.012 0.032 0 0.045a0.029 0.029 0 0 1 -0.042 0L0.009 0.27a0.033 0.033 0 0 1 0 -0.045l0.127 -0.134a0.029 0.029 0 0 1 0.042 0c0.012 0.012 0.012 0.032 0 0.045L0.072 0.248Zm0.455 0L0.421 0.136a0.033 0.033 0 0 1 0 -0.045 0.029 0.029 0 0 1 0.042 0l0.127 0.134c0.012 0.012 0.012 0.032 0 0.045l-0.127 0.134a0.029 0.029 0 0 1 -0.042 0 0.033 0.033 0 0 1 0 -0.045l0.106 -0.112Z"/>
</svg>
